<?xml version="1.0" standalone="no"?>
<!DOCTYPE svg PUBLIC "-//W3C//DTD SVG 20010904//EN"
 "http://www.w3.org/TR/2001/REC-SVG-20010904/DTD/svg10.dtd">
<svg version="1.0" xmlns="http://www.w3.org/2000/svg"
 width="32.000000pt" height="32.000000pt" viewBox="0 0 32.000000 32.000000"
 preserveAspectRatio="xMidYMid meet">
<metadata>
Created by potrace 1.16, written by Peter Selinger 2001-2019
</metadata>
<g transform="translate(0.000000,32.000000) scale(0.100000,-0.100000)"
fill="#000000" stroke="none">
<path d="M0 160 l0 -160 160 0 160 0 0 160 0 160 -160 0 -160 0 0 -160z m221
115 c86 -45 92 -187 9 -230 -39 -20 -40 -20 -40 17 0 23 8 38 26 53 24 19 26
26 20 66 l-6 44 -69 0 c-69 0 -70 0 -75 -29 -11 -51 -6 -66 24 -84 22 -14 27
-21 18 -30 -8 -8 -17 -8 -32 -1 -20 10 -20 10 -2 -5 11 -9 23 -16 28 -16 4 0
8 -7 8 -15 0 -18 -8 -18 -38 -1 -36 19 -62 66 -62 111 0 100 103 165 191 120z"/>
</g>
</svg>
